<?xml version="1.0" encoding="UTF-8" standalone="no"?>
<svg width="100px" height="100px" viewBox="0 0 100 100" version="1.1" xmlns="http://www.w3.org/2000/svg" xmlns:xlink="http://www.w3.org/1999/xlink">
    <!-- Generator: Sketch 41.2 (35397) - http://www.bohemiancoding.com/sketch -->
    <title>info-icon</title>
    <desc>Created with Sketch.</desc>
    <defs></defs>
    <g id="Page-1" stroke="none" stroke-width="1" fill="none" fill-rule="evenodd">
        <g id="All-Snacks" transform="translate(-1074.000000, -389.000000)" fill="#000000">
            <g id="info-icon" transform="translate(1074.000000, 389.000000)">
                <path d="M53.596063,34.8493701 C49.6346457,34.8974016 46.3102362,31.3391339 46.2748031,27.013937 C46.2393701,22.6761417 49.4755906,19.0493701 53.4283465,18.9966142 C57.3826772,18.9430709 60.676378,22.4832283 60.7228346,26.8367717 C60.7692913,31.2107874 57.576378,34.8013386 53.596063,34.8493701 M58.9913386,70.3659055 C55.284252,73.2367717 51.619685,76.2281102 47.588189,78.5745669 C46.3519685,79.294252 43.2622047,78.7454331 42.3661417,77.6643307 C41.1732283,76.2233858 40.5984252,73.5556693 40.9755906,71.6572441 C42.3007874,64.9879528 44.1700787,58.4288976 45.776378,51.813937 C46.1031496,50.4674803 46.1858268,49.0619685 46.4433071,47.2477953 C44.0409449,47.9123622 42.1551181,48.4344094 40.2685039,48.9564567 C40.0488189,48.6895276 39.8291339,48.4225984 39.6094488,48.1556693 C40.2944882,47.0651181 40.7629921,45.7131496 41.7055118,44.933622 C44.4251969,42.6832283 47.1338583,40.2564567 50.2496063,38.7107874 C52.0464567,37.8194488 55.2110236,37.6666929 56.6787402,38.7068504 C58.1047244,39.717874 59.0023622,42.8351969 58.6472441,44.7517323 C57.3850394,51.5619685 55.4779528,58.2525197 53.8425197,64.9950394 C53.5433071,66.2281102 53.3748031,67.4926772 53.0094488,69.4824409 C55.5748031,68.6871654 57.3598425,68.133622 59.8393701,67.3643307 C59.4464567,68.8533071 59.5,69.9722047 58.9913386,70.3659055 M49.7244094,-0.000236220472 C22.2622047,-0.000236220472 0,22.2619685 0,49.7241732 C0,77.186378 22.2622047,99.4485827 49.7244094,99.4485827 C77.1866142,99.4485827 99.4488189,77.186378 99.4488189,49.7241732 C99.4488189,22.2619685 77.1866142,-0.000236220472 49.7244094,-0.000236220472" id="Fill-1"></path>
            </g>
        </g>
    </g>
</svg>